# xmcd CD database file
#
# Track frame offsets:
#	150
#	16193
#	40373
#	69012
#	86655
#	108168
#	129709
#	152667
#	167261
#	188072
#	217212
#
# Disc length: 3942 seconds
#
# Revision: 0
# Processed by: cddbd v1.5PL3 Copyright (c) Steve Scherf et al.
# Submitted via: CDex 1.51
#
DISCID=870f640b
DTITLE=Adam Holt and The Blues Congregation - Who I Am
DYEAR=2002
DGENRE=Blues
TTITLE0=Who I am
TTITLE1=Killer On The Loose
TTITLE2=The End
TTITLE3=Drunk On Love
TTITLE4=Holding On To Your Love
TTITLE5=Honey-Doos
TTITLE6=Going Back To Mobile
TTITLE7=Queenie Makes Me Feel
TTITLE8=How Do I Love Thee
TTITLE9=Knocking At Your Door
TTITLE10=Hole In My Pocket
EXTD=YEAR: 2002
EXTT0=
EXTT1=
EXTT2=
EXTT3=
EXTT4=
EXTT5=
EXTT6=
EXTT7=
EXTT8=
EXTT9=
EXTT10=
PLAYORDER=
